<?xml version="1.0" encoding="UTF-8"?>
<svg class="logo-svg" xmlns="http://www.w3.org/2000/svg" viewBox="0 0 1022.93 227.59">
  <g>
    <g>
      <path class="logo-path" d="M20.41,26.33h65.84l17.78,26.78-17.56,18.44-13.39-20.19H30.51l-3.95,4.39v89.76l6.36,9.66h42.14l15.58-15.58,13.83,20.63-18.87,19.75H19.75L0,150.55V46.97l20.41-20.63Z"/>
      <path class="logo-path" d="M128.83,11.19h26.56v55.09l11.85-7.24h47.19l20.41,28.75v92.18h-26.56v-87.13l-6.36-9.22h-42.14l-4.39,4.17v92.18h-26.56V11.19Z"/>
      <path class="logo-path" d="M345.88,58.6l19.97,29.85-38.85,39.94h-40.16v15.8l7.02,10.31h42.14l12.07-12.51,15.36,19.31-18,18.66h-64.74l-19.09-28.53v-72.64l19.53-20.19h64.74ZM286.84,106.22h30.51l16.24-17.12-3.51-5.05h-38.19l-5.05,5.27v16.9Z"/>
      <path class="logo-path" d="M429.06,15.8l20.85,12.29v117.85l6.36,9.44h37.31v24.58h-50.26l-19.75-29.19V40.38h-27.21V15.8h32.7Z"/>
      <path class="logo-path" d="M629.65,59.04v128.83l-38.19,39.72h-67.6v-24.8h56.62l22.61-22.82h-55.31l-23.92-35.34V59.04h26.56v80.76l10.75,15.58h41.92V59.04h26.56Z"/>
      <path class="logo-path" d="M677.93,57.5h64.08l14.92,21.73-17.12,17.78-10.53-15.36h-40.38l-3.95,3.51v10.1l6.15,9h51.36l17.12,25.46v30.95l-17.34,19.31h-73.08l-11.85-18.44,17.12-17.56,7.68,11.19h48.72l2.19-2.41v-17.78l-4.17-6.15h-51.35l-18.88-28.31v-24.14l19.31-18.87Z"/>
      <path class="logo-path" d="M941.29,57.5h64.08l14.92,21.73-17.12,17.78-10.53-15.36h-40.38l-3.95,3.51v10.1l6.15,9h51.36l17.12,25.46v30.95l-17.34,19.31h-73.08l-11.85-18.44,17.12-17.56,7.68,11.19h48.72l2.19-2.41v-17.78l-4.17-6.15h-51.35l-18.88-28.31v-24.14l19.31-18.87Z"/>
    </g>
    <g>
      <path class="logo-path" d="M841.62,0c20.92,0,37.87,16.96,37.87,37.87-.07,6.53-1.48,12.98-4.15,18.95h4.15c5.23,0,9.46,4.24,9.46,9.47,0,4.79-3.59,8.83-8.35,9.39l-1.11.07h-11.96l11.74,54.82c1.09,5.04-2.06,10.02-7.07,11.21l-1.07.19-1.11.06h-56.81c-5.23,0-9.47-4.24-9.47-9.46,0-.3.01-.59.04-.88l.17-1.11,11.74-54.82h-11.95c-5.23,0-9.46-4.25-9.46-9.48,0-4.79,3.59-8.83,8.35-9.39l1.11-.07h4.15c-2.03-4.58-3.35-9.45-3.9-14.44l-.19-2.45-.06-2.05C803.75,16.96,820.7,0,841.62,0Z"/>
      <path class="logo-path" d="M898.43,151.49h-113.61c-5.23,0-9.47,4.24-9.47,9.47,0,10.46,8.48,18.94,18.94,18.94h94.68c9.61,0,17.7-7.19,18.81-16.74l.1-1.65c.3-5.22-3.68-9.7-8.9-10-.18-.01-.36-.02-.55-.02Z"/>
    </g>
  </g>
</svg>